<?xml version="1.0" encoding="utf-8"?>
<svg viewBox="0 0 500 500" xmlns="http://www.w3.org/2000/svg">
  <path fill="#DB2538" opacity="1.000000" stroke="none" d="M 260.697 27.008 C 262.547 27.685 266.779 27.787 268.318 28.164 C 277.034 30.304 283.272 32.244 291.633 35.325 C 301.032 38.788 310.18 43.298 318.778 48.451 C 325.432 52.438 331.181 57.99 337.12 63.093 C 340.616 66.095 343.624 69.657 346.982 72.829 C 353.246 78.748 358.519 85.322 362.283 93.171 C 366.116 101.164 371.009 108.685 374.41 116.842 C 379.852 129.896 383.154 143.657 382.964 157.874 C 382.819 168.708 383.644 179.733 380.251 190.299 C 375.623 204.712 371.848 219.52 365.821 233.335 C 357.025 253.495 346.674 272.984 336.75 292.641 C 330.653 304.717 324.413 316.743 317.688 328.477 C 311.37 339.502 304.272 350.078 297.623 360.916 C 290.948 371.797 284.539 382.842 277.757 393.655 C 272.668 401.77 267.11 409.59 261.881 417.619 C 257.782 423.914 253.85 430.319 249.875 436.694 C 245.87 443.116 243.138 443.018 238.916 436.575 C 232.619 426.966 225.972 417.584 219.79 407.904 C 211.055 394.226 202.61 380.364 194.038 366.582 C 186.268 354.087 178.272 341.725 170.802 329.054 C 166.029 320.959 162.05 312.399 157.682 304.064 C 149.85 289.115 141.76 274.296 134.227 259.198 C 128.881 248.485 123.537 237.666 119.507 226.424 C 113.134 208.646 106.012 190.905 105.07 171.716 C 104.516 160.445 104.48 149.05 107.541 138.04 C 110.261 128.261 112.655 118.237 116.812 109.054 C 120.943 99.93 126.972 91.642 132.39 83.128 C 138.76 73.116 147.391 65.149 156.524 57.761 C 174.2 43.463 193.871 33.357 216.611 29.912 C 220.49 29.324 224.345 28.575 228.648 27.848 C 239.499 27.509 249.915 27.222 260.697 27.008 M 211.386 221.961 C 229.414 232.346 248.472 234.333 267.595 226.459 C 285.085 219.257 297.869 207.085 304.68 188.395 C 309.991 173.821 310.079 159.994 305.403 145.692 C 301.628 134.145 294.877 124.717 285.719 116.663 C 275.886 108.014 264.567 103.216 251.774 102.045 C 245.65 101.485 239.361 101.886 233.218 102.527 C 216.026 104.319 202.493 113.446 192.516 126.663 C 182.734 139.62 178.032 154.576 179.567 171.64 C 180.984 187.393 187.591 200.006 197.896 211.124 C 201.627 215.151 206.358 218.251 211.386 221.961 Z"/>
  <path fill="#DB2538" opacity="1.000000" stroke="none" d="M 267.04 450.083 C 271.692 449.537 276.358 449.092 280.993 448.427 C 298.546 445.908 316.33 444.373 333.561 440.432 C 348.168 437.092 362.396 431.578 376.283 425.803 C 385.02 422.169 393.013 416.521 398.984 408.723 C 402.087 404.671 401.68 399.318 397.073 394.574 C 393.559 390.955 389.619 387.303 385.154 385.143 C 373.974 379.734 362.588 374.602 350.9 370.437 C 341.56 367.109 331.727 364.999 321.969 363.079 C 317.142 362.129 317.982 359.263 319.207 356.977 C 323.379 349.193 328.161 341.738 332.477 334.027 C 334.406 330.581 337.252 330.343 340.372 331.129 C 359.331 335.904 378.054 341.488 395.496 350.477 C 402.609 354.144 409.848 358.153 415.738 363.445 C 421.626 368.735 426.362 375.523 430.704 382.235 C 433.165 386.04 433.822 391.012 435.606 395.682 C 435.987 400.988 436.055 406.07 435.718 411.752 C 433.31 424.421 425.69 432.99 417.21 440.893 C 405.098 452.18 390.397 459.257 375.091 464.768 C 358.609 470.703 341.846 475.93 324.284 478.002 C 312.178 479.429 300.123 481.277 288.043 482.921 C 283.398 483.553 278.746 484.139 274.098 484.747 C 254.071 484.789 234.043 484.832 213.289 484.486 C 200.55 482.746 188.486 481.745 176.542 479.947 C 164.595 478.15 152.627 476.116 140.922 473.178 C 124.11 468.957 107.222 464.581 92.4 454.983 C 84.482 449.855 76.405 444.873 69.03 439.029 C 60.038 431.902 55.55 421.669 52.263 410.919 C 52.183 405.19 52.104 399.461 52.108 393.263 C 56.375 383.221 60.964 373.817 69.101 366.942 C 74.932 362.016 80.954 357.104 87.554 353.352 C 95.715 348.712 104.36 344.738 113.164 341.463 C 124.02 337.425 135.208 334.243 146.346 331.016 C 150.875 329.704 156.269 333.267 158.633 337.864 C 161.722 343.868 165.001 349.781 168.412 355.609 C 170.647 359.427 169.484 362.459 165.286 363.572 C 151.201 367.306 136.866 370.369 123.173 375.229 C 111.78 379.272 100.921 385.139 91.918 393.612 C 84.979 400.143 85.789 407.845 93.698 414.214 C 104.449 422.873 116.507 429.043 129.699 432.932 C 142.215 436.623 154.739 440.344 167.417 443.403 C 174.147 445.027 181.212 445.252 188.12 446.15 C 194.775 447.015 201.41 448.04 208.077 448.789 C 211.899 449.218 215.766 449.237 220.155 449.994 C 235.721 450.636 250.747 450.73 265.773 450.782 C 266.195 450.783 266.618 450.326 267.04 450.083 Z"/>
</svg>